PathFileType	4	(X/Y/Z)	C:/Users/beibeiliu/ov580/test_trc/User2\sequence.10_training_dense_left.trc
DataRate	CameraRate	NumFrames	NumMarkers	Units	OrigDataRate	OrigDataStartFrame	OrigNumFrames
120	120	11	19	mm	120	1	57
Frame#	Time	ThumbCMC			ThumbMCP			ThumbIP			ThumbTip			IndexMCP			IndexPIP			IndexTip			MiddleMCP			MiddlePIP			MiddleTip			RingMCP			RingPIP			RingTip			PinkyMCP			PinkyPIP			PinkyTip			BackHand1			BackHand2			BackHand3	
		X0	Y0	Z0	X1	Y1	Z1	X2	Y2	Z2	X3	Y3	Z3	X4	Y4	Z4	X5	Y5	Z5	X6	Y6	Z6	X7	Y7	Z7	X8	Y8	Z8	X9	Y9	Z9	X10	Y10	Z10	X11	Y11	Z11	X12	Y12	Z12	X13	Y13	Z13	X14	Y14	Z14	X15	Y15	Z15	X16	Y16	Z16	X17	Y17	Z17	X18	Y18	Z18	
0	0	-149.331	-27.126	-15.7662	-131.969	-33.531	-39.6683	-111.267	-35.8475	-68.3361	-98.8947	-40.371	-91.9742	-174.402	11.4762	-86.688	-168.562	19.7355	-111.725	-165.551	33.1752	-141.215	-202.353	16.4938	-91.575	-208.037	25.6954	-121.964	-215.239	31.7087	-152.85	-228.083	8.28641	-87.0919	-236.697	13.2594	-108.522	-245.409	17.2051	-136.488	-251.287	-8.79458	-69.2442	-261.714	-6.05056	-88.4069	-271.335	4.66507	-110.144	-218.551	0.891189	-32.1665	-214.397	-4.70453	5.24119	-182.327	1.29757	-19.1766	
1	0.00833333	-151.745	-27.1551	-19.1871	-132.105	-32.8244	-41.8412	-117.081	-36.652	-69.9522	-99.9813	-42.0976	-92.2762	-176.602	11.2933	-89.4111	-172.134	21.1948	-116.549	-170.018	32.1176	-143.486	-203.932	16.2052	-95.01	-209.14	23.4535	-120.591	-218.206	30.4745	-153.335	-233.725	6.34698	-84.6134	-237.969	11.1542	-109.738	-248.687	17.2285	-141.325	-248.95	-11.549	-66.6952	-266.126	-5.5399	-92.0854	-275.482	2.82245	-107.166	-221.392	-1.9747	-29.2004	-214.364	-3.18827	2.07314	-182.692	0.621776	-22.2903	
2	0.0166667	-152.329	-30.0837	-17.8264	-134.701	-35.6984	-39.7265	-113.522	-38.017	-72.6125	-102.395	-44.4666	-88.2948	-172.381	9.02503	-93.5403	-173.498	16.51	-115.588	-167.443	27.0728	-140.236	-206.597	12.5755	-92.0986	-210.282	20.3923	-122.222	-215.464	27.7713	-152.049	-229.072	3.27237	-84.332	-240.47	8.79408	-114.044	-250.404	13.7248	-140.055	-251.468	-12.7092	-67.0305	-266.091	-9.51813	-90.2794	-275.182	-1.90389	-109.255	-222.608	-3.25573	-29.7174	-214.141	-6.50401	1.06504	-184.363	-2.37669	-19.9251	
3	0.025	-148.883	-27.7192	-22.4204	-134.299	-34.2095	-42.686	-114.653	-37.68	-70.9657	-100.537	-44.28	-86.4619	-174.82	9.29567	-93.0958	-168.667	18.8177	-118.359	-172.435	26.6942	-140.157	-203.733	12.2136	-91.3666	-210.403	21.4334	-124.263	-217.773	28.2169	-152.569	-229.192	4.37524	-87.0496	-240.719	8.64076	-112.624	-246.614	12.9964	-136.12	-246.551	-13.1602	-67.5973	-261.736	-7.88149	-91.4044	-275.199	-0.67458	-108.907	-220.871	-3.2083	-33.0855	-217.496	-5.67011	0.581123	-182.804	-0.900963	-23.0899	
4	0.0333333	-153.801	-31.776	-20.0393	-133.427	-35.8237	-45.4393	-112.706	-40.2106	-70.7726	-98.7589	-45.9518	-89.5448	-173.08	6.40338	-91.0715	-171.506	14.7255	-115.101	-168.743	24.9943	-140.633	-203.263	13.6337	-97.4714	-209.469	19.7751	-128.008	-216.831	25.8016	-152.936	-234.596	2.00981	-85.848	-241.195	8.3494	-115.169	-251.228	9.94843	-142.114	-253.618	-13.5143	-68.2599	-261.702	-9.40931	-92.3185	-276.598	-4.68431	-113.678	-222.03	-3.22264	-32.5431	-212.289	-6.38583	-2.20136	-184.042	-4.01814	-24.3049	
5	0.0416667	-154.85	-31.9294	-24.2185	-136.009	-37.4495	-45.1883	-117.854	-40.7543	-75.8289	-103.028	-47.7855	-94.3288	-173.937	5.12965	-90.1729	-176.25	15.4781	-119.203	-171.836	23.8013	-141.32	-208.876	12.0946	-95.821	-212.1	18.1038	-126.342	-222.97	17.2022	-157.445	-236.086	2.46387	-85.1769	-245.064	6.07926	-115.745	-251.496	0.229376	-142.393	-251.905	-11.9536	-67.8226	-262.229	-9.5584	-92.6931	-273.336	-16.5501	-119.633	-219.459	-5.43506	-29.6022	-215.723	-9.18317	0.147756	-181.896	-5.52415	-23.2219	
6	0.05	-153.738	-30.0561	-21.9943	-135.87	-37.4713	-45.8981	-125.119	-44.7643	-73.8328	-116.972	-49.7008	-98.2806	-178.731	11.0998	-91.4653	-173.956	17.7229	-112.831	-176.075	27.5962	-139.547	-210.343	14.0063	-94.6776	-212.294	14.3331	-126.119	-219.327	-6.77904	-159.211	-229.884	3.67135	-83.9387	-239.821	1.63358	-116.044	-237.246	-23.1712	-143.766	-252.894	-11.6646	-68.9526	-259.946	-15.537	-102.736	-256.528	-35.8222	-122.54	-219.942	-6.17321	-28.7758	-219.397	-8.55798	3.25683	-186.668	-2.13143	-18.5397	
7	0.0583333	-154.584	-30.9833	-15.3485	-140.251	-42.334	-44.3326	-133.151	-49.2516	-81.4472	-134.852	-57.1683	-105.442	-176.663	13.298	-86.3285	-172.929	22.3242	-113.804	-176.924	29.8269	-136.37	-204.962	8.40996	-96.8953	-206.529	-4.42914	-128.228	-200.858	-45.2845	-138.403	-224.582	-1.17587	-89.1497	-229.97	-17.2501	-118.739	-219.452	-50.0412	-121.431	-247.222	-14.7467	-77.1423	-243.777	-29.3065	-104.47	-228.712	-61.2341	-105.354	-225.908	-5.62757	-27.6566	-221.521	-7.86849	2.11928	-184.965	0.749565	-16.757	
8	0.0666667	-155.323	-30.6314	-20.1081	-144.603	-44.8377	-50.7575	-145.905	-54.8906	-83	-157.821	-61.4022	-109.824	-176.267	13.3339	-85.4752	-174.607	23.5327	-115.539	-172.478	31.6635	-142.137	-200.637	-0.516845	-98.6737	-199.836	-28.5033	-127.491	-190.396	-63.0574	-114.62	-221.288	-13.1776	-97.431	-217.672	-38.4334	-117.201	-200.931	-66.1528	-97.2131	-240.991	-26.3602	-81.0052	-228.996	-48.4369	-103.794	-213.239	-73.6976	-85.6298	-223.617	-7.20778	-33.0915	-223.32	-11.4521	1.89584	-187.849	-1.07104	-17.4908	
9	0.075	-157.942	-31.6609	-21.421	-143.252	-51.2073	-54.6679	-145.986	-65.0467	-85.6996	-166.461	-73.2042	-105.227	-177.13	10.6861	-91.0826	-179.018	16.9729	-115.482	-179.001	25.7814	-143.279	-198.404	-12.2355	-105.302	-191.103	-43.134	-123.903	-182.435	-72.2721	-99.5588	-215.498	-27.4163	-102.443	-211.605	-57.1133	-112.6	-194.877	-73.8905	-82.7905	-233.442	-38.8444	-84.4946	-218.406	-69.285	-96.4127	-203.147	-77.8634	-70.2926	-227.865	-11.4361	-37.1106	-225.222	-12.7184	-5.87216	-189.215	-1.44436	-20.2408	
10	0.0833333	-155.999	-30.4396	-25.4014	-143.61	-54.368	-52.6592	-146.382	-73.813	-83.4827	-165.621	-85.485	-104.22	-182.519	1.53825	-97.6121	-180.125	6.81186	-122.338	-184.51	12.4454	-151.551	-198.361	-28.5747	-108.843	-186.443	-59.1055	-118.553	-177.061	-82.3086	-87.3468	-217.598	-47.5372	-100.063	-202.113	-75.0829	-104.491	-184.354	-81.3014	-70.0243	-228.388	-56.3786	-84.7237	-206.822	-84.4434	-86.8409	-193.661	-82.1146	-58.066	-228.888	-19.5417	-41.0429	-225.936	-18.3564	-10.7659	-194.441	-3.32323	-25.7329	
